<?xml version="1.0" encoding="UTF-8" standalone="no"?>
<!DOCTYPE svg PUBLIC "-//W3C//DTD SVG 1.1//EN" "http://www.w3.org/Graphics/SVG/1.1/DTD/svg11.dtd">
<svg width="100%" height="100%" viewBox="0 0 1853 229" version="1.1" xmlns="http://www.w3.org/2000/svg" xmlns:xlink="http://www.w3.org/1999/xlink" xml:space="preserve" xmlns:serif="http://www.serif.com/" style="fill-rule:evenodd;clip-rule:evenodd;stroke-linejoin:round;stroke-miterlimit:2;">
    <g transform="matrix(1,0,0,1,-30.7703,-442.203)">
        <g transform="matrix(0.580642,0,0,0.580642,-44.2088,229.085)">
            <path d="M139.408,666.759C136.553,666.759 134.127,665.76 132.129,663.762C130.131,661.764 129.132,659.337 129.132,656.483L129.132,377.314C129.132,374.46 130.131,372.034 132.129,370.035C134.127,368.037 136.553,367.038 139.408,367.038L179.228,367.038C182.082,367.038 184.508,368.037 186.507,370.035C188.505,372.034 189.504,374.46 189.504,377.314L189.504,615.806L325.235,615.806C328.374,615.806 330.943,616.806 332.942,618.804C334.94,620.802 335.939,623.371 335.939,626.511L335.939,656.483C335.939,659.337 334.94,661.764 332.942,663.762C330.943,665.76 328.374,666.759 325.235,666.759L139.408,666.759Z" style="fill:url(#_Linear1);fill-rule:nonzero;"/>
            <path d="M467.388,671.041C444.552,671.041 425.355,667.044 409.799,659.052C394.242,651.059 382.396,639.784 374.26,625.226C366.125,610.668 361.486,593.684 360.345,574.274C360.059,569.136 359.916,562.856 359.916,555.434C359.916,548.013 360.059,541.733 360.345,536.595C361.486,516.899 366.268,499.843 374.688,485.428C383.109,471.013 395.098,459.809 410.655,451.816C426.212,443.824 445.123,439.828 467.388,439.828C489.653,439.828 508.564,443.824 524.121,451.816C539.678,459.809 551.666,471.013 560.087,485.428C568.508,499.843 573.289,516.899 574.431,536.595C574.716,541.733 574.859,548.013 574.859,555.434C574.859,562.856 574.716,569.136 574.431,574.274C573.289,593.684 568.651,610.668 560.515,625.226C552.38,639.784 540.534,651.059 524.977,659.052C509.42,667.044 490.224,671.041 467.388,671.041ZM467.388,628.652C482.517,628.652 494.22,623.87 502.498,614.308C510.776,604.745 515.343,590.687 516.199,572.133C516.485,567.851 516.628,562.285 516.628,555.434C516.628,548.583 516.485,543.017 516.199,538.735C515.343,520.181 510.776,506.123 502.498,496.56C494.22,486.998 482.517,482.217 467.388,482.217C452.259,482.217 440.556,486.998 432.278,496.56C424,506.123 419.432,520.181 418.576,538.735C418.291,543.017 418.148,548.583 418.148,555.434C418.148,562.285 418.291,567.851 418.576,572.133C419.432,590.687 424,604.745 432.278,614.308C440.556,623.87 452.259,628.652 467.388,628.652Z" style="fill:url(#_Linear2);fill-rule:nonzero;"/>
            <path d="M723.007,760.957C702.169,760.957 685.042,758.245 671.626,752.822C658.21,747.398 647.648,740.833 639.941,733.126C632.234,725.419 626.739,717.783 623.457,710.218C620.174,702.654 618.39,696.731 618.104,692.449C617.819,689.595 618.747,687.097 620.888,684.956C623.028,682.815 625.526,681.745 628.381,681.745L665.632,681.745C668.486,681.745 670.77,682.387 672.482,683.672C674.195,684.956 675.622,687.311 676.764,690.737C678.477,694.447 680.76,698.444 683.615,702.725C686.469,707.007 690.822,710.647 696.674,713.644C702.526,716.641 710.59,718.14 720.866,718.14C731.713,718.14 740.847,716.57 748.269,713.43C755.691,710.29 761.328,705.009 765.182,697.587C769.035,690.166 770.962,679.89 770.962,666.759L770.962,637.643C764.111,645.921 755.334,652.629 744.629,657.767C733.925,662.905 720.723,665.474 705.023,665.474C689.895,665.474 676.693,662.977 665.418,657.981C654.142,652.986 644.794,645.993 637.372,637.001C629.951,628.009 624.313,617.376 620.459,605.102C616.606,592.828 614.394,579.269 613.823,564.426C613.537,556.719 613.537,549.012 613.823,541.304C614.394,527.032 616.606,513.759 620.459,501.484C624.313,489.21 629.951,478.434 637.372,469.157C644.794,459.88 654.142,452.673 665.418,447.535C676.693,442.397 689.895,439.828 705.023,439.828C721.294,439.828 734.996,442.896 746.128,449.033C757.26,455.17 766.395,462.806 773.531,471.941L773.531,454.814C773.531,451.674 774.53,449.105 776.528,447.107C778.526,445.108 780.953,444.109 783.807,444.109L818.489,444.109C821.344,444.109 823.77,445.108 825.768,447.107C827.766,449.105 828.765,451.674 828.765,454.814L829.193,661.193C829.193,681.745 825.34,699.443 817.633,714.286C809.926,729.129 798.294,740.619 782.737,748.754C767.18,756.889 747.27,760.957 723.007,760.957ZM720.866,620.088C732.569,620.088 741.989,617.519 749.125,612.381C756.261,607.243 761.542,600.535 764.968,592.257C768.393,583.979 770.391,575.558 770.962,566.995C771.247,563.284 771.39,558.574 771.39,552.865C771.39,547.156 771.247,542.589 770.962,539.164C770.391,530.315 768.393,521.823 764.968,513.687C761.542,505.552 756.261,498.844 749.125,493.563C741.989,488.282 732.569,485.642 720.866,485.642C709.162,485.642 699.743,488.282 692.606,493.563C685.47,498.844 680.404,505.766 677.406,514.33C674.409,522.893 672.625,532.313 672.054,542.589C671.483,549.44 671.483,556.433 672.054,563.569C672.625,573.56 674.409,582.909 677.406,591.615C680.404,600.321 685.47,607.243 692.606,612.381C699.743,617.519 709.162,620.088 720.866,620.088Z" style="fill:url(#_Linear3);fill-rule:nonzero;"/>
            <path d="M984.62,671.041C961.784,671.041 942.588,667.044 927.031,659.052C911.474,651.059 899.628,639.784 891.493,625.226C883.357,610.668 878.719,593.684 877.577,574.274C877.292,569.136 877.149,562.856 877.149,555.434C877.149,548.013 877.292,541.733 877.577,536.595C878.719,516.899 883.5,499.843 891.921,485.428C900.341,471.013 912.33,459.809 927.887,451.816C943.444,443.824 962.355,439.828 984.62,439.828C1006.88,439.828 1025.8,443.824 1041.35,451.816C1056.91,459.809 1068.9,471.013 1077.32,485.428C1085.74,499.843 1090.52,516.899 1091.66,536.595C1091.95,541.733 1092.09,548.013 1092.09,555.434C1092.09,562.856 1091.95,569.136 1091.66,574.274C1090.52,593.684 1085.88,610.668 1077.75,625.226C1069.61,639.784 1057.77,651.059 1042.21,659.052C1026.65,667.044 1007.46,671.041 984.62,671.041ZM984.62,628.652C999.749,628.652 1011.45,623.87 1019.73,614.308C1028.01,604.745 1032.58,590.687 1033.43,572.133C1033.72,567.851 1033.86,562.285 1033.86,555.434C1033.86,548.583 1033.72,543.017 1033.43,538.735C1032.58,520.181 1028.01,506.123 1019.73,496.56C1011.45,486.998 999.749,482.217 984.62,482.217C969.491,482.217 957.788,486.998 949.51,496.56C941.232,506.123 936.665,520.181 935.808,538.735C935.523,543.017 935.38,548.583 935.38,555.434C935.38,562.285 935.523,567.851 935.808,572.133C936.665,590.687 941.232,604.745 949.51,614.308C957.788,623.87 969.491,628.652 984.62,628.652Z" style="fill:url(#_Linear4);fill-rule:nonzero;"/>
            <path d="M1253.08,666.759C1250.23,666.759 1247.8,665.76 1245.81,663.762C1243.81,661.764 1242.81,659.337 1242.81,656.483L1242.81,377.314C1242.81,374.46 1243.81,372.034 1245.81,370.035C1247.8,368.037 1250.23,367.038 1253.08,367.038L1292.9,367.038C1295.76,367.038 1298.18,368.037 1300.18,370.035C1302.18,372.034 1303.18,374.46 1303.18,377.314L1303.18,615.806L1438.91,615.806C1442.05,615.806 1444.62,616.806 1446.62,618.804C1448.62,620.802 1449.62,623.371 1449.62,626.511L1449.62,656.483C1449.62,659.337 1448.62,661.764 1446.62,663.762C1444.62,665.76 1442.05,666.759 1438.91,666.759L1253.08,666.759Z" style="fill:url(#_Linear5);fill-rule:nonzero;"/>
            <path d="M1581.06,671.041C1558.23,671.041 1539.03,667.044 1523.48,659.052C1507.92,651.059 1496.07,639.784 1487.94,625.226C1479.8,610.668 1475.16,593.684 1474.02,574.274C1473.74,569.136 1473.59,562.856 1473.59,555.434C1473.59,548.013 1473.74,541.733 1474.02,536.595C1475.16,516.899 1479.94,499.843 1488.37,485.428C1496.79,471.013 1508.78,459.809 1524.33,451.816C1539.89,443.824 1558.8,439.828 1581.06,439.828C1603.33,439.828 1622.24,443.824 1637.8,451.816C1653.35,459.809 1665.34,471.013 1673.76,485.428C1682.18,499.843 1686.97,516.899 1688.11,536.595C1688.39,541.733 1688.54,548.013 1688.54,555.434C1688.54,562.856 1688.39,569.136 1688.11,574.274C1686.97,593.684 1682.33,610.668 1674.19,625.226C1666.06,639.784 1654.21,651.059 1638.65,659.052C1623.1,667.044 1603.9,671.041 1581.06,671.041ZM1581.06,628.652C1596.19,628.652 1607.9,623.87 1616.17,614.308C1624.45,604.745 1629.02,590.687 1629.88,572.133C1630.16,567.851 1630.3,562.285 1630.3,555.434C1630.3,548.583 1630.16,543.017 1629.88,538.735C1629.02,520.181 1624.45,506.123 1616.17,496.56C1607.9,486.998 1596.19,482.217 1581.06,482.217C1565.94,482.217 1554.23,486.998 1545.95,496.56C1537.68,506.123 1533.11,520.181 1532.25,538.735C1531.97,543.017 1531.82,548.583 1531.82,555.434C1531.82,562.285 1531.97,567.851 1532.25,572.133C1533.11,590.687 1537.68,604.745 1545.95,614.308C1554.23,623.87 1565.94,628.652 1581.06,628.652Z" style="fill:url(#_Linear6);fill-rule:nonzero;"/>
            <path d="M1836.68,760.957C1815.85,760.957 1798.72,758.245 1785.3,752.822C1771.89,747.398 1761.33,740.833 1753.62,733.126C1745.91,725.419 1740.42,717.783 1737.13,710.218C1733.85,702.654 1732.07,696.731 1731.78,692.449C1731.5,689.595 1732.42,687.097 1734.56,684.956C1736.7,682.815 1739.2,681.745 1742.06,681.745L1779.31,681.745C1782.16,681.745 1784.45,682.387 1786.16,683.672C1787.87,684.956 1789.3,687.311 1790.44,690.737C1792.15,694.447 1794.44,698.444 1797.29,702.725C1800.15,707.007 1804.5,710.647 1810.35,713.644C1816.2,716.641 1824.27,718.14 1834.54,718.14C1845.39,718.14 1854.52,716.57 1861.94,713.43C1869.37,710.29 1875.01,705.009 1878.86,697.587C1882.71,690.166 1884.64,679.89 1884.64,666.759L1884.64,637.643C1877.79,645.921 1869.01,652.629 1858.31,657.767C1847.6,662.905 1834.4,665.474 1818.7,665.474C1803.57,665.474 1790.37,662.977 1779.09,657.981C1767.82,652.986 1758.47,645.993 1751.05,637.001C1743.63,628.009 1737.99,617.376 1734.14,605.102C1730.28,592.828 1728.07,579.269 1727.5,564.426C1727.21,556.719 1727.21,549.012 1727.5,541.304C1728.07,527.032 1730.28,513.759 1734.14,501.484C1737.99,489.21 1743.63,478.434 1751.05,469.157C1758.47,459.88 1767.82,452.673 1779.09,447.535C1790.37,442.397 1803.57,439.828 1818.7,439.828C1834.97,439.828 1848.67,442.896 1859.81,449.033C1870.94,455.17 1880.07,462.806 1887.21,471.941L1887.21,454.814C1887.21,451.674 1888.21,449.105 1890.2,447.107C1892.2,445.108 1894.63,444.109 1897.48,444.109L1932.17,444.109C1935.02,444.109 1937.45,445.108 1939.44,447.107C1941.44,449.105 1942.44,451.674 1942.44,454.814L1942.87,661.193C1942.87,681.745 1939.02,699.443 1931.31,714.286C1923.6,729.129 1911.97,740.619 1896.41,748.754C1880.86,756.889 1860.95,760.957 1836.68,760.957ZM1834.54,620.088C1846.25,620.088 1855.67,617.519 1862.8,612.381C1869.94,607.243 1875.22,600.535 1878.64,592.257C1882.07,583.979 1884.07,575.558 1884.64,566.995C1884.92,563.284 1885.07,558.574 1885.07,552.865C1885.07,547.156 1884.92,542.589 1884.64,539.164C1884.07,530.315 1882.07,521.823 1878.64,513.687C1875.22,505.552 1869.94,498.844 1862.8,493.563C1855.67,488.282 1846.25,485.642 1834.54,485.642C1822.84,485.642 1813.42,488.282 1806.28,493.563C1799.15,498.844 1794.08,505.766 1791.08,514.33C1788.09,522.893 1786.3,532.313 1785.73,542.589C1785.16,549.44 1785.16,556.433 1785.73,563.569C1786.3,573.56 1788.09,582.909 1791.08,591.615C1794.08,600.321 1799.15,607.243 1806.28,612.381C1813.42,617.519 1822.84,620.088 1834.54,620.088Z" style="fill:url(#_Linear7);fill-rule:nonzero;"/>
            <path d="M2098.3,671.041C2075.46,671.041 2056.26,667.044 2040.71,659.052C2025.15,651.059 2013.3,639.784 2005.17,625.226C1997.03,610.668 1992.39,593.684 1991.25,574.274C1990.97,569.136 1990.83,562.856 1990.83,555.434C1990.83,548.013 1990.97,541.733 1991.25,536.595C1992.39,516.899 1997.18,499.843 2005.6,485.428C2014.02,471.013 2026.01,459.809 2041.56,451.816C2057.12,443.824 2076.03,439.828 2098.3,439.828C2120.56,439.828 2139.47,443.824 2155.03,451.816C2170.59,459.809 2182.57,471.013 2191,485.428C2199.42,499.843 2204.2,516.899 2205.34,536.595C2205.62,541.733 2205.77,548.013 2205.77,555.434C2205.77,562.856 2205.62,569.136 2205.34,574.274C2204.2,593.684 2199.56,610.668 2191.42,625.226C2183.29,639.784 2171.44,651.059 2155.89,659.052C2140.33,667.044 2121.13,671.041 2098.3,671.041ZM2098.3,628.652C2113.43,628.652 2125.13,623.87 2133.41,614.308C2141.68,604.745 2146.25,590.687 2147.11,572.133C2147.39,567.851 2147.54,562.285 2147.54,555.434C2147.54,548.583 2147.39,543.017 2147.11,538.735C2146.25,520.181 2141.68,506.123 2133.41,496.56C2125.13,486.998 2113.43,482.217 2098.3,482.217C2083.17,482.217 2071.46,486.998 2063.19,496.56C2054.91,506.123 2050.34,520.181 2049.49,538.735C2049.2,543.017 2049.06,548.583 2049.06,555.434C2049.06,562.285 2049.2,567.851 2049.49,572.133C2050.34,590.687 2054.91,604.745 2063.19,614.308C2071.46,623.87 2083.17,628.652 2098.3,628.652Z" style="fill:url(#_Linear8);fill-rule:nonzero;"/>
            <path d="M2366.76,666.759C2363.91,666.759 2361.48,665.76 2359.48,663.762C2357.48,661.764 2356.49,659.337 2356.49,656.483L2356.49,377.314C2356.49,374.46 2357.48,372.034 2359.48,370.035C2361.48,368.037 2363.91,367.038 2366.76,367.038L2406.58,367.038C2409.43,367.038 2411.86,368.037 2413.86,370.035C2415.86,372.034 2416.86,374.46 2416.86,377.314L2416.86,615.806L2552.59,615.806C2555.73,615.806 2558.3,616.806 2560.3,618.804C2562.29,620.802 2563.29,623.371 2563.29,626.511L2563.29,656.483C2563.29,659.337 2562.29,661.764 2560.3,663.762C2558.3,665.76 2555.73,666.759 2552.59,666.759L2366.76,666.759Z" style="fill:url(#_Linear9);fill-rule:nonzero;"/>
            <path d="M2694.74,671.041C2671.91,671.041 2652.71,667.044 2637.15,659.052C2621.6,651.059 2609.75,639.784 2601.61,625.226C2593.48,610.668 2588.84,593.684 2587.7,574.274C2587.41,569.136 2587.27,562.856 2587.27,555.434C2587.27,548.013 2587.41,541.733 2587.7,536.595C2588.84,516.899 2593.62,499.843 2602.04,485.428C2610.46,471.013 2622.45,459.809 2638.01,451.816C2653.57,443.824 2672.48,439.828 2694.74,439.828C2717.01,439.828 2735.92,443.824 2751.47,451.816C2767.03,459.809 2779.02,471.013 2787.44,485.428C2795.86,499.843 2800.64,516.899 2801.78,536.595C2802.07,541.733 2802.21,548.013 2802.21,555.434C2802.21,562.856 2802.07,569.136 2801.78,574.274C2800.64,593.684 2796,610.668 2787.87,625.226C2779.73,639.784 2767.89,651.059 2752.33,659.052C2736.77,667.044 2717.58,671.041 2694.74,671.041ZM2694.74,628.652C2709.87,628.652 2721.57,623.87 2729.85,614.308C2738.13,604.745 2742.7,590.687 2743.55,572.133C2743.84,567.851 2743.98,562.285 2743.98,555.434C2743.98,548.583 2743.84,543.017 2743.55,538.735C2742.7,520.181 2738.13,506.123 2729.85,496.56C2721.57,486.998 2709.87,482.217 2694.74,482.217C2679.61,482.217 2667.91,486.998 2659.63,496.56C2651.35,506.123 2646.78,520.181 2645.93,538.735C2645.64,543.017 2645.5,548.583 2645.5,555.434C2645.5,562.285 2645.64,567.851 2645.93,572.133C2646.78,590.687 2651.35,604.745 2659.63,614.308C2667.91,623.87 2679.61,628.652 2694.74,628.652Z" style="fill:url(#_Linear10);fill-rule:nonzero;"/>
            <path d="M2950.36,760.957C2929.52,760.957 2912.39,758.245 2898.98,752.822C2885.56,747.398 2875,740.833 2867.29,733.126C2859.59,725.419 2854.09,717.783 2850.81,710.218C2847.53,702.654 2845.74,696.731 2845.46,692.449C2845.17,689.595 2846.1,687.097 2848.24,684.956C2850.38,682.815 2852.88,681.745 2855.73,681.745L2892.99,681.745C2895.84,681.745 2898.12,682.387 2899.84,683.672C2901.55,684.956 2902.97,687.311 2904.12,690.737C2905.83,694.447 2908.11,698.444 2910.97,702.725C2913.82,707.007 2918.18,710.647 2924.03,713.644C2929.88,716.641 2937.94,718.14 2948.22,718.14C2959.07,718.14 2968.2,716.57 2975.62,713.43C2983.04,710.29 2988.68,705.009 2992.53,697.587C2996.39,690.166 2998.32,679.89 2998.32,666.759L2998.32,637.643C2991.46,645.921 2982.69,652.629 2971.98,657.767C2961.28,662.905 2948.08,665.474 2932.38,665.474C2917.25,665.474 2904.05,662.977 2892.77,657.981C2881.49,652.986 2872.15,645.993 2864.72,637.001C2857.3,628.009 2851.67,617.376 2847.81,605.102C2843.96,592.828 2841.75,579.269 2841.18,564.426C2840.89,556.719 2840.89,549.012 2841.18,541.304C2841.75,527.032 2843.96,513.759 2847.81,501.484C2851.67,489.21 2857.3,478.434 2864.72,469.157C2872.15,459.88 2881.49,452.673 2892.77,447.535C2904.05,442.397 2917.25,439.828 2932.38,439.828C2948.65,439.828 2962.35,442.896 2973.48,449.033C2984.61,455.17 2993.75,462.806 3000.88,471.941L3000.88,454.814C3000.88,451.674 3001.88,449.105 3003.88,447.107C3005.88,445.108 3008.31,444.109 3011.16,444.109L3045.84,444.109C3048.7,444.109 3051.12,445.108 3053.12,447.107C3055.12,449.105 3056.12,451.674 3056.12,454.814L3056.55,661.193C3056.55,681.745 3052.69,699.443 3044.99,714.286C3037.28,729.129 3025.65,740.619 3010.09,748.754C2994.53,756.889 2974.62,760.957 2950.36,760.957ZM2948.22,620.088C2959.92,620.088 2969.34,617.519 2976.48,612.381C2983.61,607.243 2988.89,600.535 2992.32,592.257C2995.75,583.979 2997.74,575.558 2998.32,566.995C2998.6,563.284 2998.74,558.574 2998.74,552.865C2998.74,547.156 2998.6,542.589 2998.32,539.164C2997.74,530.315 2995.75,521.823 2992.32,513.687C2988.89,505.552 2983.61,498.844 2976.48,493.563C2969.34,488.282 2959.92,485.642 2948.22,485.642C2936.52,485.642 2927.1,488.282 2919.96,493.563C2912.82,498.844 2907.76,505.766 2904.76,514.33C2901.76,522.893 2899.98,532.313 2899.41,542.589C2898.84,549.44 2898.84,556.433 2899.41,563.569C2899.98,573.56 2901.76,582.909 2904.76,591.615C2907.76,600.321 2912.82,607.243 2919.96,612.381C2927.1,617.519 2936.52,620.088 2948.22,620.088Z" style="fill:url(#_Linear11);fill-rule:nonzero;"/>
            <path d="M3211.97,671.041C3189.14,671.041 3169.94,667.044 3154.38,659.052C3138.83,651.059 3126.98,639.784 3118.85,625.226C3110.71,610.668 3106.07,593.684 3104.93,574.274C3104.64,569.136 3104.5,562.856 3104.5,555.434C3104.5,548.013 3104.64,541.733 3104.93,536.595C3106.07,516.899 3110.85,499.843 3119.27,485.428C3127.7,471.013 3139.68,459.809 3155.24,451.816C3170.8,443.824 3189.71,439.828 3211.97,439.828C3234.24,439.828 3253.15,443.824 3268.71,451.816C3284.26,459.809 3296.25,471.013 3304.67,485.428C3313.09,499.843 3317.87,516.899 3319.02,536.595C3319.3,541.733 3319.44,548.013 3319.44,555.434C3319.44,562.856 3319.3,569.136 3319.02,574.274C3317.87,593.684 3313.24,610.668 3305.1,625.226C3296.97,639.784 3285.12,651.059 3269.56,659.052C3254.01,667.044 3234.81,671.041 3211.97,671.041ZM3211.97,628.652C3227.1,628.652 3238.81,623.87 3247.08,614.308C3255.36,604.745 3259.93,590.687 3260.78,572.133C3261.07,567.851 3261.21,562.285 3261.21,555.434C3261.21,548.583 3261.07,543.017 3260.78,538.735C3259.93,520.181 3255.36,506.123 3247.08,496.56C3238.81,486.998 3227.1,482.217 3211.97,482.217C3196.84,482.217 3185.14,486.998 3176.86,496.56C3168.59,506.123 3164.02,520.181 3163.16,538.735C3162.88,543.017 3162.73,548.583 3162.73,555.434C3162.73,562.285 3162.88,567.851 3163.16,572.133C3164.02,590.687 3168.59,604.745 3176.86,614.308C3185.14,623.87 3196.84,628.652 3211.97,628.652Z" style="fill:url(#_Linear12);fill-rule:nonzero;"/>
        </g>
    </g>
    <defs>
        <linearGradient id="_Linear1" x1="0" y1="0" x2="1" y2="0" gradientUnits="userSpaceOnUse" gradientTransform="matrix(3242.98,0,0,507.384,95.7341,520.11)"><stop offset="0" style="stop-color:rgb(0,5,255);stop-opacity:1"/><stop offset="0.27" style="stop-color:rgb(92,3,211);stop-opacity:1"/><stop offset="0.5" style="stop-color:rgb(128,2,194);stop-opacity:1"/><stop offset="1" style="stop-color:rgb(255,0,132);stop-opacity:1"/></linearGradient>
        <linearGradient id="_Linear2" x1="0" y1="0" x2="1" y2="0" gradientUnits="userSpaceOnUse" gradientTransform="matrix(3242.98,0,0,507.384,95.7341,520.11)"><stop offset="0" style="stop-color:rgb(0,5,255);stop-opacity:1"/><stop offset="0.27" style="stop-color:rgb(92,3,211);stop-opacity:1"/><stop offset="0.5" style="stop-color:rgb(128,2,194);stop-opacity:1"/><stop offset="1" style="stop-color:rgb(255,0,132);stop-opacity:1"/></linearGradient>
        <linearGradient id="_Linear3" x1="0" y1="0" x2="1" y2="0" gradientUnits="userSpaceOnUse" gradientTransform="matrix(3242.98,0,0,507.384,95.7341,520.11)"><stop offset="0" style="stop-color:rgb(0,5,255);stop-opacity:1"/><stop offset="0.27" style="stop-color:rgb(92,3,211);stop-opacity:1"/><stop offset="0.5" style="stop-color:rgb(128,2,194);stop-opacity:1"/><stop offset="1" style="stop-color:rgb(255,0,132);stop-opacity:1"/></linearGradient>
        <linearGradient id="_Linear4" x1="0" y1="0" x2="1" y2="0" gradientUnits="userSpaceOnUse" gradientTransform="matrix(3242.98,0,0,507.384,95.7341,520.11)"><stop offset="0" style="stop-color:rgb(0,5,255);stop-opacity:1"/><stop offset="0.27" style="stop-color:rgb(92,3,211);stop-opacity:1"/><stop offset="0.5" style="stop-color:rgb(128,2,194);stop-opacity:1"/><stop offset="1" style="stop-color:rgb(255,0,132);stop-opacity:1"/></linearGradient>
        <linearGradient id="_Linear5" x1="0" y1="0" x2="1" y2="0" gradientUnits="userSpaceOnUse" gradientTransform="matrix(3242.98,0,0,507.384,95.7341,520.11)"><stop offset="0" style="stop-color:rgb(0,5,255);stop-opacity:1"/><stop offset="0.27" style="stop-color:rgb(92,3,211);stop-opacity:1"/><stop offset="0.5" style="stop-color:rgb(128,2,194);stop-opacity:1"/><stop offset="1" style="stop-color:rgb(255,0,132);stop-opacity:1"/></linearGradient>
        <linearGradient id="_Linear6" x1="0" y1="0" x2="1" y2="0" gradientUnits="userSpaceOnUse" gradientTransform="matrix(3242.98,0,0,507.384,95.7341,520.11)"><stop offset="0" style="stop-color:rgb(0,5,255);stop-opacity:1"/><stop offset="0.27" style="stop-color:rgb(92,3,211);stop-opacity:1"/><stop offset="0.5" style="stop-color:rgb(128,2,194);stop-opacity:1"/><stop offset="1" style="stop-color:rgb(255,0,132);stop-opacity:1"/></linearGradient>
        <linearGradient id="_Linear7" x1="0" y1="0" x2="1" y2="0" gradientUnits="userSpaceOnUse" gradientTransform="matrix(3242.98,0,0,507.384,95.7341,520.11)"><stop offset="0" style="stop-color:rgb(0,5,255);stop-opacity:1"/><stop offset="0.27" style="stop-color:rgb(92,3,211);stop-opacity:1"/><stop offset="0.5" style="stop-color:rgb(128,2,194);stop-opacity:1"/><stop offset="1" style="stop-color:rgb(255,0,132);stop-opacity:1"/></linearGradient>
        <linearGradient id="_Linear8" x1="0" y1="0" x2="1" y2="0" gradientUnits="userSpaceOnUse" gradientTransform="matrix(3242.98,0,0,507.384,95.7341,520.11)"><stop offset="0" style="stop-color:rgb(0,5,255);stop-opacity:1"/><stop offset="0.27" style="stop-color:rgb(92,3,211);stop-opacity:1"/><stop offset="0.5" style="stop-color:rgb(128,2,194);stop-opacity:1"/><stop offset="1" style="stop-color:rgb(255,0,132);stop-opacity:1"/></linearGradient>
        <linearGradient id="_Linear9" x1="0" y1="0" x2="1" y2="0" gradientUnits="userSpaceOnUse" gradientTransform="matrix(3242.98,0,0,507.384,95.7341,520.11)"><stop offset="0" style="stop-color:rgb(0,5,255);stop-opacity:1"/><stop offset="0.27" style="stop-color:rgb(92,3,211);stop-opacity:1"/><stop offset="0.5" style="stop-color:rgb(128,2,194);stop-opacity:1"/><stop offset="1" style="stop-color:rgb(255,0,132);stop-opacity:1"/></linearGradient>
        <linearGradient id="_Linear10" x1="0" y1="0" x2="1" y2="0" gradientUnits="userSpaceOnUse" gradientTransform="matrix(3242.98,0,0,507.384,95.7341,520.11)"><stop offset="0" style="stop-color:rgb(0,5,255);stop-opacity:1"/><stop offset="0.27" style="stop-color:rgb(92,3,211);stop-opacity:1"/><stop offset="0.5" style="stop-color:rgb(128,2,194);stop-opacity:1"/><stop offset="1" style="stop-color:rgb(255,0,132);stop-opacity:1"/></linearGradient>
        <linearGradient id="_Linear11" x1="0" y1="0" x2="1" y2="0" gradientUnits="userSpaceOnUse" gradientTransform="matrix(3242.98,0,0,507.384,95.7341,520.11)"><stop offset="0" style="stop-color:rgb(0,5,255);stop-opacity:1"/><stop offset="0.27" style="stop-color:rgb(92,3,211);stop-opacity:1"/><stop offset="0.5" style="stop-color:rgb(128,2,194);stop-opacity:1"/><stop offset="1" style="stop-color:rgb(255,0,132);stop-opacity:1"/></linearGradient>
        <linearGradient id="_Linear12" x1="0" y1="0" x2="1" y2="0" gradientUnits="userSpaceOnUse" gradientTransform="matrix(3242.98,0,0,507.384,95.7341,520.11)"><stop offset="0" style="stop-color:rgb(0,5,255);stop-opacity:1"/><stop offset="0.27" style="stop-color:rgb(92,3,211);stop-opacity:1"/><stop offset="0.5" style="stop-color:rgb(128,2,194);stop-opacity:1"/><stop offset="1" style="stop-color:rgb(255,0,132);stop-opacity:1"/></linearGradient>
    </defs>
</svg>
